<?xml version="1.0" standalone="no"?>
<!DOCTYPE svg PUBLIC "-//W3C//DTD SVG 20010904//EN"
 "http://www.w3.org/TR/2001/REC-SVG-20010904/DTD/svg10.dtd">
<svg version="1.0" xmlns="http://www.w3.org/2000/svg"
 width="700.000000pt" height="700.000000pt" viewBox="0 0 700.000000 700.000000"
 preserveAspectRatio="xMidYMid meet">
<metadata>
Created by potrace 1.14, written by Peter Selinger 2001-2017
</metadata>
<g transform="translate(0.000000,700.000000) scale(0.100000,-0.100000)"
fill="#000000" stroke="none">
<path d="M3408 6545 c-2 -2 -48 -5 -103 -9 -55 -3 -109 -8 -121 -10 -12 -2
-45 -7 -75 -11 -30 -4 -72 -10 -94 -15 -22 -5 -56 -12 -75 -15 -201 -34 -547
-154 -762 -264 -251 -128 -454 -274 -633 -455 -116 -118 -154 -159 -185 -206
-8 -12 -20 -28 -27 -35 -26 -27 -114 -170 -161 -263 -164 -319 -243 -661 -243
-1047 1 -180 16 -337 62 -653 12 -78 18 -153 15 -167 -7 -27 -45 -65 -146
-145 -121 -96 -180 -210 -180 -344 0 -87 17 -137 124 -362 l94 -198 -37 -42
c-20 -23 -42 -58 -48 -78 -22 -71 -22 -70 204 -801 36 -115 67 -219 70 -230 3
-11 18 -60 33 -110 16 -49 49 -160 75 -245 51 -174 78 -222 145 -260 49 -26
114 -32 220 -17 131 18 446 57 460 57 9 0 23 -21 35 -52 26 -68 77 -109 142
-115 37 -4 83 6 203 42 85 25 162 48 170 50 87 23 241 75 263 89 35 24 65 73
72 121 7 43 23 -13 -395 1370 -117 385 -221 732 -232 772 -32 109 -97 173
-177 173 -16 0 -135 -32 -263 -70 -128 -39 -244 -73 -257 -76 -72 -15 -130
-55 -158 -108 -17 -33 -19 -109 -4 -149 6 -16 11 -34 11 -40 0 -12 -176 -105
-183 -97 -11 13 -177 364 -177 375 0 7 33 39 72 70 146 116 211 203 243 326
21 77 18 155 -9 320 -13 79 -29 185 -35 234 -6 50 -14 108 -17 130 -13 98 -12
315 2 410 67 463 357 859 852 1160 295 180 580 283 939 341 137 22 471 30 619
14 584 -59 1095 -287 1478 -659 248 -242 399 -514 452 -811 32 -182 18 -452
-41 -800 -59 -347 -15 -469 243 -675 34 -27 62 -53 62 -57 0 -5 -21 -50 -46
-100 -25 -51 -45 -94 -45 -95 0 -3 -61 -131 -77 -160 l-13 -23 -110 56 c-100
49 -110 57 -105 77 19 67 18 112 -6 156 -40 75 -24 69 -553 227 -44 13 -97 24
-118 24 -48 0 -105 -29 -134 -68 -21 -28 -115 -333 -504 -1632 -77 -256 -146
-486 -154 -512 -29 -92 -12 -166 50 -215 36 -29 565 -193 623 -193 75 0 141
51 167 131 16 46 19 50 43 45 33 -6 88 -13 162 -21 30 -4 87 -11 125 -16 39
-5 95 -12 125 -15 30 -3 60 -7 67 -9 7 -2 44 -7 83 -11 112 -10 196 31 239
116 10 19 40 107 66 195 26 88 60 203 76 255 16 52 34 109 39 125 5 17 32 106
60 198 29 93 53 174 54 180 2 7 17 59 35 117 18 58 44 141 57 185 14 44 31
100 39 125 36 114 24 197 -40 263 l-35 36 66 138 c136 284 146 310 149 397 4
121 -34 223 -113 305 -15 16 -61 56 -102 90 -86 71 -118 112 -115 144 6 46 16
113 20 127 3 8 7 37 9 64 3 26 7 56 10 65 3 9 7 39 11 66 3 28 9 66 12 85 21
137 26 530 8 665 -39 282 -100 494 -210 720 -179 370 -446 656 -850 911 -62
39 -241 132 -325 168 -72 31 -295 112 -350 127 -19 5 -42 11 -50 14 -140 37
-319 72 -455 90 -95 12 -399 27 -407 20z"/>
</g>
</svg>
